<?xml version="1.0" encoding="utf-8" standalone="no"?>
<!DOCTYPE svg PUBLIC "-//W3C//DTD SVG 1.1//EN"
  "http://www.w3.org/Graphics/SVG/1.1/DTD/svg11.dtd">
<svg xmlns:xlink="http://www.w3.org/1999/xlink" width="518.4pt" height="446.4pt" viewBox="0 0 518.4 446.4" xmlns="http://www.w3.org/2000/svg" version="1.1">
 <metadata>
  <rdf:RDF xmlns:dc="http://purl.org/dc/elements/1.1/" xmlns:cc="http://creativecommons.org/ns#" xmlns:rdf="http://www.w3.org/1999/02/22-rdf-syntax-ns#">
   <cc:Work>
    <dc:type rdf:resource="http://purl.org/dc/dcmitype/StillImage"/>
    <dc:date>2026-07-31T19:49:36.003112</dc:date>
    <dc:format>image/svg+xml</dc:format>
    <dc:creator>
     <cc:Agent>
      <dc:title>Matplotlib v3.9.2, https://matplotlib.org/</dc:title>
     </cc:Agent>
    </dc:creator>
   </cc:Work>
  </rdf:RDF>
 </metadata>
 <defs>
  <style type="text/css">*{stroke-linejoin: round; stroke-linecap: butt}</style>
 </defs>
 <g id="figure_1">
  <g id="patch_1">
   <path d="M 0 446.4 
L 518.4 446.4 
L 518.4 0 
L 0 0 
z
" style="fill: #ffffff"/>
  </g>
  <g id="axes_1">
   <g id="patch_2">
    <path d="M 44.48 193.364 
L 508.68 193.364 
L 508.68 9.72 
L 44.48 9.72 
z
" style="fill: #ffffff"/>
   </g>
   <g id="matplotlib.axis_1">
    <g id="xtick_1">
     <g id="line2d_1">
      <defs>
       <path id="m4ad5fa593e" d="M 0 0 
L 0 3.5 
" style="stroke: #000000; stroke-width: 0.8"/>
      </defs>
      <g>
       <use xlink:href="#m4ad5fa593e" x="63.821667" y="193.364" style="stroke: #000000; stroke-width: 0.8"/>
      </g>
     </g>
    </g>
    <g id="xtick_2">
     <g id="line2d_2">
      <g>
       <use xlink:href="#m4ad5fa593e" x="160.53" y="193.364" style="stroke: #000000; stroke-width: 0.8"/>
      </g>
     </g>
    </g>
    <g id="xtick_3">
     <g id="line2d_3">
      <g>
       <use xlink:href="#m4ad5fa593e" x="257.238333" y="193.364" style="stroke: #000000; stroke-width: 0.8"/>
      </g>
     </g>
    </g>
    <g id="xtick_4">
     <g id="line2d_4">
      <g>
       <use xlink:href="#m4ad5fa593e" x="353.946667" y="193.364" style="stroke: #000000; stroke-width: 0.8"/>
      </g>
     </g>
    </g>
    <g id="xtick_5">
     <g id="line2d_5">
      <g>
       <use xlink:href="#m4ad5fa593e" x="450.655" y="193.364" style="stroke: #000000; stroke-width: 0.8"/>
      </g>
     </g>
    </g>
   </g>
   <g id="matplotlib.axis_2">
    <g id="ytick_1">
     <g id="line2d_6">
      <path d="M 44.48 193.364 
L 508.68 193.364 
" clip-path="url(#p49a5b4378d)" style="fill: none; stroke: #b0b0b0; stroke-opacity: 0.18; stroke-width: 0.5; stroke-linecap: square"/>
     </g>
     <g id="line2d_7">
      <defs>
       <path id="m832e52d5e6" d="M 0 0 
L -3.5 0 
" style="stroke: #000000; stroke-width: 0.8"/>
      </defs>
      <g>
       <use xlink:href="#m832e52d5e6" x="44.48" y="193.364" style="stroke: #000000; stroke-width: 0.8"/>
      </g>
     </g>
     <g id="text_1">
      <text style="font: 9px 'Arial', 'DejaVu Sans', sans-serif; text-anchor: end" x="37.48" y="196.783297" transform="rotate(-0 37.48 196.783297)">0.0</text>
     </g>
    </g>
    <g id="ytick_2">
     <g id="line2d_8">
      <path d="M 44.48 159.974182 
L 508.68 159.974182 
" clip-path="url(#p49a5b4378d)" style="fill: none; stroke: #b0b0b0; stroke-opacity: 0.18; stroke-width: 0.5; stroke-linecap: square"/>
     </g>
     <g id="line2d_9">
      <g>
       <use xlink:href="#m832e52d5e6" x="44.48" y="159.974182" style="stroke: #000000; stroke-width: 0.8"/>
      </g>
     </g>
     <g id="text_2">
      <text style="font: 9px 'Arial', 'DejaVu Sans', sans-serif; text-anchor: end" x="37.48" y="163.393479" transform="rotate(-0 37.48 163.393479)">0.2</text>
     </g>
    </g>
    <g id="ytick_3">
     <g id="line2d_10">
      <path d="M 44.48 126.584364 
L 508.68 126.584364 
" clip-path="url(#p49a5b4378d)" style="fill: none; stroke: #b0b0b0; stroke-opacity: 0.18; stroke-width: 0.5; stroke-linecap: square"/>
     </g>
     <g id="line2d_11">
      <g>
       <use xlink:href="#m832e52d5e6" x="44.48" y="126.584364" style="stroke: #000000; stroke-width: 0.8"/>
      </g>
     </g>
     <g id="text_3">
      <text style="font: 9px 'Arial', 'DejaVu Sans', sans-serif; text-anchor: end" x="37.48" y="130.003661" transform="rotate(-0 37.48 130.003661)">0.4</text>
     </g>
    </g>
    <g id="ytick_4">
     <g id="line2d_12">
      <path d="M 44.48 93.194545 
L 508.68 93.194545 
" clip-path="url(#p49a5b4378d)" style="fill: none; stroke: #b0b0b0; stroke-opacity: 0.18; stroke-width: 0.5; stroke-linecap: square"/>
     </g>
     <g id="line2d_13">
      <g>
       <use xlink:href="#m832e52d5e6" x="44.48" y="93.194545" style="stroke: #000000; stroke-width: 0.8"/>
      </g>
     </g>
     <g id="text_4">
      <text style="font: 9px 'Arial', 'DejaVu Sans', sans-serif; text-anchor: end" x="37.48" y="96.613842" transform="rotate(-0 37.48 96.613842)">0.6</text>
     </g>
    </g>
    <g id="ytick_5">
     <g id="line2d_14">
      <path d="M 44.48 59.804727 
L 508.68 59.804727 
" clip-path="url(#p49a5b4378d)" style="fill: none; stroke: #b0b0b0; stroke-opacity: 0.18; stroke-width: 0.5; stroke-linecap: square"/>
     </g>
     <g id="line2d_15">
      <g>
       <use xlink:href="#m832e52d5e6" x="44.48" y="59.804727" style="stroke: #000000; stroke-width: 0.8"/>
      </g>
     </g>
     <g id="text_5">
      <text style="font: 9px 'Arial', 'DejaVu Sans', sans-serif; text-anchor: end" x="37.48" y="63.224024" transform="rotate(-0 37.48 63.224024)">0.8</text>
     </g>
    </g>
    <g id="ytick_6">
     <g id="line2d_16">
      <path d="M 44.48 26.414909 
L 508.68 26.414909 
" clip-path="url(#p49a5b4378d)" style="fill: none; stroke: #b0b0b0; stroke-opacity: 0.18; stroke-width: 0.5; stroke-linecap: square"/>
     </g>
     <g id="line2d_17">
      <g>
       <use xlink:href="#m832e52d5e6" x="44.48" y="26.414909" style="stroke: #000000; stroke-width: 0.8"/>
      </g>
     </g>
     <g id="text_6">
      <text style="font: 9px 'Arial', 'DejaVu Sans', sans-serif; text-anchor: end" x="37.48" y="29.834206" transform="rotate(-0 37.48 29.834206)">1.0</text>
     </g>
    </g>
    <g id="text_7">
     <text style="font: 9px 'Arial', 'DejaVu Sans', sans-serif; text-anchor: middle" x="17.295469" y="101.542" transform="rotate(-90 17.295469 101.542)">Normalized IR intensity</text>
    </g>
   </g>
   <g id="line2d_18">
    <path d="M 44.286583 193.327669 
L 86.83825 193.176708 
L 97.863 192.939942 
L 103.08525 192.63016 
L 106.179917 192.253629 
L 108.3075 191.797477 
L 109.854833 191.263541 
L 111.015333 190.662275 
L 111.982417 189.941266 
L 112.756083 189.136581 
L 113.52975 188.015059 
L 114.303417 186.38918 
L 114.883667 184.640954 
L 115.463917 182.164852 
L 116.044167 178.512828 
L 116.624417 172.858064 
L 117.01125 167.234393 
L 117.398083 159.213344 
L 117.784917 147.493003 
L 118.17175 130.175418 
L 118.752 90.162395 
L 119.33225 49.383152 
L 119.525667 45.963726 
L 119.719083 50.506255 
L 120.105917 76.568024 
L 120.879583 131.665469 
L 121.459833 154.75205 
L 122.040083 167.710103 
L 122.620333 175.330539 
L 123.200583 180.08629 
L 123.780833 183.21839 
L 124.361083 185.376994 
L 125.13475 187.339531 
L 125.908417 188.664625 
L 126.682083 189.599132 
L 127.649167 190.4236 
L 128.809667 191.100769 
L 130.163583 191.632746 
L 131.904333 192.080489 
L 134.41875 192.473928 
L 138.093667 192.789173 
L 143.896167 193.028708 
L 154.14725 193.196397 
L 176.970417 193.301228 
L 253.37 193.348025 
L 421.255667 193.257577 
L 440.403917 193.060495 
L 447.947167 192.786967 
L 452.202333 192.429402 
L 454.910167 191.995642 
L 456.844333 191.470512 
L 458.19825 190.900537 
L 459.35875 190.180459 
L 460.325833 189.310846 
L 461.0995 188.333312 
L 461.873167 186.959969 
L 462.453417 185.531224 
L 463.033667 183.577022 
L 463.613917 180.813212 
L 464.194167 176.74398 
L 464.774417 170.456373 
L 465.16125 164.215234 
L 465.548083 155.327531 
L 465.934917 142.356757 
L 466.32175 123.190335 
L 466.902 78.602413 
L 467.48225 31.334103 
L 467.675667 26.414909 
L 467.869083 30.517321 
L 468.255917 58.969338 
L 469.029583 122.106876 
L 469.609833 148.864073 
L 470.190083 163.869341 
L 470.770333 172.673281 
L 471.350583 178.15505 
L 471.930833 181.758182 
L 472.511083 184.237335 
L 473.28475 186.48784 
L 474.058417 188.005172 
L 474.832083 189.074014 
L 475.799167 190.016026 
L 476.959667 190.788961 
L 478.313583 191.395607 
L 480.054333 191.905759 
L 482.375333 192.327085 
L 485.663417 192.669777 
L 490.69225 192.938867 
L 499.202583 193.136579 
L 508.873417 193.230258 
L 508.873417 193.230258 
" clip-path="url(#p49a5b4378d)" style="fill: none; stroke: #b2472f; stroke-width: 1.7; stroke-linecap: square"/>
   </g>
   <g id="LineCollection_1">
    <path d="M 119.511654 193.364 
L 119.511654 58.877232 
" clip-path="url(#p49a5b4378d)" style="fill: none; stroke: #b2472f; stroke-opacity: 0.55; stroke-width: 0.8"/>
   </g>
   <g id="LineCollection_2">
    <path d="M 119.511654 193.364 
L 119.511654 58.877232 
" clip-path="url(#p49a5b4378d)" style="fill: none; stroke: #b2472f; stroke-opacity: 0.55; stroke-width: 0.8"/>
   </g>
   <g id="LineCollection_3">
    <path d="M 119.511654 193.364 
L 119.511654 77.427131 
" clip-path="url(#p49a5b4378d)" style="fill: none; stroke: #b2472f; stroke-opacity: 0.55; stroke-width: 0.8"/>
   </g>
   <g id="LineCollection_4">
    <path d="M 467.684663 193.364 
L 467.684663 58.877232 
" clip-path="url(#p49a5b4378d)" style="fill: none; stroke: #b2472f; stroke-opacity: 0.55; stroke-width: 0.8"/>
   </g>
   <g id="LineCollection_5">
    <path d="M 467.684663 193.364 
L 467.684663 58.877232 
" clip-path="url(#p49a5b4378d)" style="fill: none; stroke: #b2472f; stroke-opacity: 0.55; stroke-width: 0.8"/>
   </g>
   <g id="LineCollection_6">
    <path d="M 467.684663 193.364 
L 467.684663 26.414909 
" clip-path="url(#p49a5b4378d)" style="fill: none; stroke: #b2472f; stroke-opacity: 0.55; stroke-width: 0.8"/>
   </g>
   <g id="line2d_19">
    <path d="M 123.007167 193.364 
L 123.007167 9.72 
" clip-path="url(#p49a5b4378d)" style="fill: none; stroke-dasharray: 3.33,1.44; stroke-dashoffset: 0; stroke: #202020; stroke-width: 0.9"/>
   </g>
   <g id="line2d_20">
    <path d="M 454.329917 193.364 
L 454.329917 9.72 
" clip-path="url(#p49a5b4378d)" style="fill: none; stroke-dasharray: 3.33,1.44; stroke-dashoffset: 0; stroke: #202020; stroke-width: 0.9"/>
   </g>
   <g id="patch_3">
    <path d="M 44.48 193.364 
L 44.48 9.72 
" style="fill: none; stroke: #000000; stroke-width: 0.8; stroke-linejoin: miter; stroke-linecap: square"/>
   </g>
   <g id="patch_4">
    <path d="M 44.48 193.364 
L 508.68 193.364 
" style="fill: none; stroke: #000000; stroke-width: 0.8; stroke-linejoin: miter; stroke-linecap: square"/>
   </g>
   <g id="text_8">
    <text style="font: 8px 'Arial', 'DejaVu Sans', sans-serif; text-anchor: middle" x="123.007167" y="21.412177" transform="rotate(-0 123.007167 21.412177)">nu4 T2</text>
   </g>
   <g id="text_9">
    <text style="font: 8px 'Arial', 'DejaVu Sans', sans-serif; text-anchor: middle" x="454.329917" y="21.412177" transform="rotate(-0 454.329917 21.412177)">nu3 T2</text>
   </g>
   <g id="text_10">
    <text style="font: 700 9px 'Arial', 'DejaVu Sans', sans-serif; text-anchor: start" x="49.122" y="24.41152" transform="rotate(-0 49.122 24.41152)">a  IR</text>
   </g>
  </g>
  <g id="axes_2">
   <g id="patch_5">
    <path d="M 44.48 392.488 
L 508.68 392.488 
L 508.68 208.844 
L 44.48 208.844 
z
" style="fill: #ffffff"/>
   </g>
   <g id="matplotlib.axis_3">
    <g id="xtick_6">
     <g id="line2d_21">
      <g>
       <use xlink:href="#m4ad5fa593e" x="63.821667" y="392.488" style="stroke: #000000; stroke-width: 0.8"/>
      </g>
     </g>
     <g id="text_11">
      <text style="font: 9px 'Arial', 'DejaVu Sans', sans-serif; text-anchor: middle" x="63.821667" y="406.326594" transform="rotate(-0 63.821667 406.326594)">1000</text>
     </g>
    </g>
    <g id="xtick_7">
     <g id="line2d_22">
      <g>
       <use xlink:href="#m4ad5fa593e" x="160.53" y="392.488" style="stroke: #000000; stroke-width: 0.8"/>
      </g>
     </g>
     <g id="text_12">
      <text style="font: 9px 'Arial', 'DejaVu Sans', sans-serif; text-anchor: middle" x="160.53" y="406.326594" transform="rotate(-0 160.53 406.326594)">1500</text>
     </g>
    </g>
    <g id="xtick_8">
     <g id="line2d_23">
      <g>
       <use xlink:href="#m4ad5fa593e" x="257.238333" y="392.488" style="stroke: #000000; stroke-width: 0.8"/>
      </g>
     </g>
     <g id="text_13">
      <text style="font: 9px 'Arial', 'DejaVu Sans', sans-serif; text-anchor: middle" x="257.238333" y="406.326594" transform="rotate(-0 257.238333 406.326594)">2000</text>
     </g>
    </g>
    <g id="xtick_9">
     <g id="line2d_24">
      <g>
       <use xlink:href="#m4ad5fa593e" x="353.946667" y="392.488" style="stroke: #000000; stroke-width: 0.8"/>
      </g>
     </g>
     <g id="text_14">
      <text style="font: 9px 'Arial', 'DejaVu Sans', sans-serif; text-anchor: middle" x="353.946667" y="406.326594" transform="rotate(-0 353.946667 406.326594)">2500</text>
     </g>
    </g>
    <g id="xtick_10">
     <g id="line2d_25">
      <g>
       <use xlink:href="#m4ad5fa593e" x="450.655" y="392.488" style="stroke: #000000; stroke-width: 0.8"/>
      </g>
     </g>
     <g id="text_15">
      <text style="font: 9px 'Arial', 'DejaVu Sans', sans-serif; text-anchor: middle" x="450.655" y="406.326594" transform="rotate(-0 450.655 406.326594)">3000</text>
     </g>
    </g>
    <g id="text_16">
     <!-- Wavenumber (cm$^{-1}$) -->
     <g transform="translate(229.735 419.686594)">
      <text>
       <tspan style="font: 9px 'DejaVu Sans'" x="0 8.898926 14.414062 19.740234 25.277344 30.981445 36.685547 45.452637 51.165527 56.702637 60.402832 63.263672 66.774902 71.723145 90.109424" y="-0.9609375">Wavenumber (cm)</tspan>
       <tspan style="font: 6.3px 'DejaVu Sans'" x="80.576367 85.855078" y="-4.40625">−1</tspan>
      </text>
     </g>
    </g>
   </g>
   <g id="matplotlib.axis_4">
    <g id="ytick_7">
     <g id="line2d_26">
      <path d="M 44.48 392.488 
L 508.68 392.488 
" clip-path="url(#p46e942fc72)" style="fill: none; stroke: #b0b0b0; stroke-opacity: 0.18; stroke-width: 0.5; stroke-linecap: square"/>
     </g>
     <g id="line2d_27">
      <g>
       <use xlink:href="#m832e52d5e6" x="44.48" y="392.488" style="stroke: #000000; stroke-width: 0.8"/>
      </g>
     </g>
     <g id="text_17">
      <text style="font: 9px 'Arial', 'DejaVu Sans', sans-serif; text-anchor: end" x="37.48" y="395.907297" transform="rotate(-0 37.48 395.907297)">0.0</text>
     </g>
    </g>
    <g id="ytick_8">
     <g id="line2d_28">
      <path d="M 44.48 359.098182 
L 508.68 359.098182 
" clip-path="url(#p46e942fc72)" style="fill: none; stroke: #b0b0b0; stroke-opacity: 0.18; stroke-width: 0.5; stroke-linecap: square"/>
     </g>
     <g id="line2d_29">
      <g>
       <use xlink:href="#m832e52d5e6" x="44.48" y="359.098182" style="stroke: #000000; stroke-width: 0.8"/>
      </g>
     </g>
     <g id="text_18">
      <text style="font: 9px 'Arial', 'DejaVu Sans', sans-serif; text-anchor: end" x="37.48" y="362.517479" transform="rotate(-0 37.48 362.517479)">0.2</text>
     </g>
    </g>
    <g id="ytick_9">
     <g id="line2d_30">
      <path d="M 44.48 325.708364 
L 508.68 325.708364 
" clip-path="url(#p46e942fc72)" style="fill: none; stroke: #b0b0b0; stroke-opacity: 0.18; stroke-width: 0.5; stroke-linecap: square"/>
     </g>
     <g id="line2d_31">
      <g>
       <use xlink:href="#m832e52d5e6" x="44.48" y="325.708364" style="stroke: #000000; stroke-width: 0.8"/>
      </g>
     </g>
     <g id="text_19">
      <text style="font: 9px 'Arial', 'DejaVu Sans', sans-serif; text-anchor: end" x="37.48" y="329.127661" transform="rotate(-0 37.48 329.127661)">0.4</text>
     </g>
    </g>
    <g id="ytick_10">
     <g id="line2d_32">
      <path d="M 44.48 292.318545 
L 508.68 292.318545 
" clip-path="url(#p46e942fc72)" style="fill: none; stroke: #b0b0b0; stroke-opacity: 0.18; stroke-width: 0.5; stroke-linecap: square"/>
     </g>
     <g id="line2d_33">
      <g>
       <use xlink:href="#m832e52d5e6" x="44.48" y="292.318545" style="stroke: #000000; stroke-width: 0.8"/>
      </g>
     </g>
     <g id="text_20">
      <text style="font: 9px 'Arial', 'DejaVu Sans', sans-serif; text-anchor: end" x="37.48" y="295.737842" transform="rotate(-0 37.48 295.737842)">0.6</text>
     </g>
    </g>
    <g id="ytick_11">
     <g id="line2d_34">
      <path d="M 44.48 258.928727 
L 508.68 258.928727 
" clip-path="url(#p46e942fc72)" style="fill: none; stroke: #b0b0b0; stroke-opacity: 0.18; stroke-width: 0.5; stroke-linecap: square"/>
     </g>
     <g id="line2d_35">
      <g>
       <use xlink:href="#m832e52d5e6" x="44.48" y="258.928727" style="stroke: #000000; stroke-width: 0.8"/>
      </g>
     </g>
     <g id="text_21">
      <text style="font: 9px 'Arial', 'DejaVu Sans', sans-serif; text-anchor: end" x="37.48" y="262.348024" transform="rotate(-0 37.48 262.348024)">0.8</text>
     </g>
    </g>
    <g id="ytick_12">
     <g id="line2d_36">
      <path d="M 44.48 225.538909 
L 508.68 225.538909 
" clip-path="url(#p46e942fc72)" style="fill: none; stroke: #b0b0b0; stroke-opacity: 0.18; stroke-width: 0.5; stroke-linecap: square"/>
     </g>
     <g id="line2d_37">
      <g>
       <use xlink:href="#m832e52d5e6" x="44.48" y="225.538909" style="stroke: #000000; stroke-width: 0.8"/>
      </g>
     </g>
     <g id="text_22">
      <text style="font: 9px 'Arial', 'DejaVu Sans', sans-serif; text-anchor: end" x="37.48" y="228.958206" transform="rotate(-0 37.48 228.958206)">1.0</text>
     </g>
    </g>
    <g id="text_23">
     <text style="font: 9px 'Arial', 'DejaVu Sans', sans-serif; text-anchor: middle" x="17.295469" y="300.666" transform="rotate(-90 17.295469 300.666)">Normalized Raman intensity</text>
    </g>
   </g>
   <g id="line2d_38">
    <path d="M 44.347195 392.485367 
L 149.317528 392.373573 
L 155.065183 392.176468 
L 157.485249 391.894959 
L 158.695281 391.58491 
L 159.602806 391.161431 
L 160.207822 390.691863 
L 160.812838 389.927986 
L 161.417855 388.574095 
L 161.720363 387.477457 
L 162.022871 385.884152 
L 162.325379 383.482784 
L 162.627887 379.73979 
L 162.930396 373.837096 
L 163.535412 355.870879 
L 163.83792 353.774254 
L 165.047953 382.256706 
L 165.652969 386.943609 
L 166.257985 389.087338 
L 166.863002 390.209004 
L 167.468018 390.860647 
L 168.375543 391.419599 
L 169.585575 391.808787 
L 171.400624 392.088903 
L 174.425706 392.280885 
L 180.778377 392.404917 
L 199.533884 392.467091 
L 321.747182 392.477396 
L 414.314681 392.355357 
L 426.415007 392.144937 
L 431.255138 391.871988 
L 433.977711 391.534837 
L 435.79276 391.119909 
L 437.002793 390.66586 
L 437.910318 390.154096 
L 438.817842 389.386684 
L 439.422858 388.640206 
L 440.027875 387.585108 
L 440.632891 386.026719 
L 441.237907 383.592516 
L 441.842924 379.502798 
L 442.145432 376.344227 
L 442.44794 371.932416 
L 442.750448 365.560733 
L 443.052956 356.016655 
L 443.355465 341.212759 
L 443.657973 317.839799 
L 444.262989 241.797207 
L 444.565497 225.538909 
L 444.868005 252.971725 
L 445.473022 325.754518 
L 446.078038 359.196283 
L 446.683054 373.337317 
L 447.288071 380.194821 
L 447.893087 383.952408 
L 448.498103 386.209633 
L 449.10312 387.661983 
L 449.708136 388.646462 
L 450.615661 389.613088 
L 451.523185 390.223532 
L 452.733218 390.728599 
L 454.245759 391.080493 
L 456.060808 391.265442 
L 458.178365 391.246219 
L 459.993414 390.995325 
L 461.203446 390.620878 
L 462.110971 390.136031 
L 462.715987 389.645446 
L 463.321003 388.934274 
L 463.92602 387.860241 
L 464.531036 386.145994 
L 465.136052 383.197805 
L 465.438561 380.877462 
L 465.741069 377.587566 
L 466.043577 372.758383 
L 466.346085 365.40607 
L 466.648593 353.86678 
L 466.951101 335.779549 
L 467.556118 287.87016 
L 467.858626 290.156654 
L 468.76615 355.990409 
L 469.371167 373.668878 
L 469.976183 381.352636 
L 470.581199 385.194259 
L 471.186216 387.351989 
L 471.791232 388.67482 
L 472.396248 389.541403 
L 473.303773 390.370433 
L 474.211297 390.887163 
L 475.42133 391.320406 
L 475.42133 391.320406 
" clip-path="url(#p46e942fc72)" style="fill: none; stroke: #2f6b9a; stroke-width: 1.7; stroke-linecap: square"/>
   </g>
   <g id="LineCollection_7">
    <path d="M 119.511654 392.488 
L 119.511654 392.487934 
" clip-path="url(#p46e942fc72)" style="fill: none; stroke: #2f6b9a; stroke-opacity: 0.55; stroke-width: 0.8"/>
   </g>
   <g id="LineCollection_8">
    <path d="M 119.511654 392.488 
L 119.511654 392.487934 
" clip-path="url(#p46e942fc72)" style="fill: none; stroke: #2f6b9a; stroke-opacity: 0.55; stroke-width: 0.8"/>
   </g>
   <g id="LineCollection_9">
    <path d="M 119.511654 392.488 
L 119.511654 392.48793 
" clip-path="url(#p46e942fc72)" style="fill: none; stroke: #2f6b9a; stroke-opacity: 0.55; stroke-width: 0.8"/>
   </g>
   <g id="LineCollection_10">
    <path d="M 163.744148 392.488 
L 163.744148 372.938609 
" clip-path="url(#p46e942fc72)" style="fill: none; stroke: #2f6b9a; stroke-opacity: 0.55; stroke-width: 0.8"/>
   </g>
   <g id="LineCollection_11">
    <path d="M 163.744148 392.488 
L 163.744148 372.855908 
" clip-path="url(#p46e942fc72)" style="fill: none; stroke: #2f6b9a; stroke-opacity: 0.55; stroke-width: 0.8"/>
   </g>
   <g id="LineCollection_12">
    <path d="M 444.521394 392.488 
L 444.521394 225.538909 
" clip-path="url(#p46e942fc72)" style="fill: none; stroke: #2f6b9a; stroke-opacity: 0.55; stroke-width: 0.8"/>
   </g>
   <g id="LineCollection_13">
    <path d="M 467.684663 392.488 
L 467.684663 356.805812 
" clip-path="url(#p46e942fc72)" style="fill: none; stroke: #2f6b9a; stroke-opacity: 0.55; stroke-width: 0.8"/>
   </g>
   <g id="LineCollection_14">
    <path d="M 467.684663 392.488 
L 467.684663 356.805827 
" clip-path="url(#p46e942fc72)" style="fill: none; stroke: #2f6b9a; stroke-opacity: 0.55; stroke-width: 0.8"/>
   </g>
   <g id="LineCollection_15">
    <path d="M 467.684663 392.488 
L 467.684663 356.810927 
" clip-path="url(#p46e942fc72)" style="fill: none; stroke: #2f6b9a; stroke-opacity: 0.55; stroke-width: 0.8"/>
   </g>
   <g id="line2d_39">
    <path d="M 123.007167 392.488 
L 123.007167 208.844 
" clip-path="url(#p46e942fc72)" style="fill: none; stroke-dasharray: 3.33,1.44; stroke-dashoffset: 0; stroke: #202020; stroke-width: 0.9"/>
   </g>
   <g id="line2d_40">
    <path d="M 167.106167 392.488 
L 167.106167 208.844 
" clip-path="url(#p46e942fc72)" style="fill: none; stroke-dasharray: 3.33,1.44; stroke-dashoffset: 0; stroke: #202020; stroke-width: 0.9"/>
   </g>
   <g id="line2d_41">
    <path d="M 434.601417 392.488 
L 434.601417 208.844 
" clip-path="url(#p46e942fc72)" style="fill: none; stroke-dasharray: 3.33,1.44; stroke-dashoffset: 0; stroke: #202020; stroke-width: 0.9"/>
   </g>
   <g id="line2d_42">
    <path d="M 454.329917 392.488 
L 454.329917 208.844 
" clip-path="url(#p46e942fc72)" style="fill: none; stroke-dasharray: 3.33,1.44; stroke-dashoffset: 0; stroke: #202020; stroke-width: 0.9"/>
   </g>
   <g id="patch_6">
    <path d="M 44.48 392.488 
L 44.48 208.844 
" style="fill: none; stroke: #000000; stroke-width: 0.8; stroke-linejoin: miter; stroke-linecap: square"/>
   </g>
   <g id="patch_7">
    <path d="M 44.48 392.488 
L 508.68 392.488 
" style="fill: none; stroke: #000000; stroke-width: 0.8; stroke-linejoin: miter; stroke-linecap: square"/>
   </g>
   <g id="text_24">
    <text style="font: 8px 'Arial', 'DejaVu Sans', sans-serif; text-anchor: middle" x="123.007167" y="220.536177" transform="rotate(-0 123.007167 220.536177)">nu4 T2</text>
   </g>
   <g id="text_25">
    <text style="font: 8px 'Arial', 'DejaVu Sans', sans-serif; text-anchor: middle" x="167.106167" y="220.536177" transform="rotate(-0 167.106167 220.536177)">nu2 E</text>
   </g>
   <g id="text_26">
    <text style="font: 8px 'Arial', 'DejaVu Sans', sans-serif; text-anchor: middle" x="434.601417" y="220.536177" transform="rotate(-0 434.601417 220.536177)">nu1 A1</text>
   </g>
   <g id="text_27">
    <text style="font: 8px 'Arial', 'DejaVu Sans', sans-serif; text-anchor: middle" x="454.329917" y="232.222614" transform="rotate(-0 454.329917 232.222614)">nu3 T2</text>
   </g>
   <g id="text_28">
    <text style="font: 700 9px 'Arial', 'DejaVu Sans', sans-serif; text-anchor: start" x="49.122" y="223.53552" transform="rotate(-0 49.122 223.53552)">b  Raman</text>
   </g>
  </g>
  <g id="text_29">
   <text style="fill: #444444; font: 7.5px 'Arial', 'DejaVu Sans', sans-serif; text-anchor: end" x="515.808" y="440.376234" transform="rotate(-0 515.808 440.376234)">Solid: ABACUS/PBE harmonic; dashed: experimental fundamentals</text>
  </g>
 </g>
 <defs>
  <clipPath id="p49a5b4378d">
   <rect x="44.48" y="9.72" width="464.2" height="183.644"/>
  </clipPath>
  <clipPath id="p46e942fc72">
   <rect x="44.48" y="208.844" width="464.2" height="183.644"/>
  </clipPath>
 </defs>
</svg>
