<?xml version="1.0" encoding="utf-8" standalone="no"?>
<!DOCTYPE svg PUBLIC "-//W3C//DTD SVG 1.1//EN"
  "http://www.w3.org/Graphics/SVG/1.1/DTD/svg11.dtd">
<svg xmlns:xlink="http://www.w3.org/1999/xlink" width="516.005pt" height="319.3265pt" viewBox="0 0 516.005 319.3265" xmlns="http://www.w3.org/2000/svg" version="1.1">
 <metadata>
  <rdf:RDF xmlns:dc="http://purl.org/dc/elements/1.1/" xmlns:cc="http://creativecommons.org/ns#" xmlns:rdf="http://www.w3.org/1999/02/22-rdf-syntax-ns#">
   <cc:Work>
    <dc:type rdf:resource="http://purl.org/dc/dcmitype/StillImage"/>
    <dc:date>2026-07-31T19:44:58.345565</dc:date>
    <dc:format>image/svg+xml</dc:format>
    <dc:creator>
     <cc:Agent>
      <dc:title>Matplotlib v3.9.2, https://matplotlib.org/</dc:title>
     </cc:Agent>
    </dc:creator>
   </cc:Work>
  </rdf:RDF>
 </metadata>
 <defs>
  <style type="text/css">*{stroke-linejoin: round; stroke-linecap: butt}</style>
 </defs>
 <g id="figure_1">
  <g id="patch_1">
   <path d="M 0 319.3265 
L 516.005 319.3265 
L 516.005 0 
L 0 0 
z
" style="fill: #ffffff"/>
  </g>
  <g id="axes_1">
   <g id="patch_2">
    <path d="M 38.665 285.064 
L 508.805 285.064 
L 508.805 7.2 
L 38.665 7.2 
z
" style="fill: #ffffff"/>
   </g>
   <g id="matplotlib.axis_1">
    <g id="xtick_1">
     <g id="line2d_1">
      <defs>
       <path id="m807a694c8c" d="M 0 0 
L 0 3.5 
" style="stroke: #000000; stroke-width: 0.8"/>
      </defs>
      <g>
       <use xlink:href="#m807a694c8c" x="38.665" y="285.064" style="stroke: #000000; stroke-width: 0.8"/>
      </g>
     </g>
     <g id="text_1">
      <text style="font: 8px 'Arial', 'DejaVu Sans', sans-serif; text-anchor: middle" x="38.665" y="298.14275" transform="rotate(-0 38.665 298.14275)">0</text>
     </g>
    </g>
    <g id="xtick_2">
     <g id="line2d_2">
      <g>
       <use xlink:href="#m807a694c8c" x="113.814138" y="285.064" style="stroke: #000000; stroke-width: 0.8"/>
      </g>
     </g>
     <g id="text_2">
      <text style="font: 8px 'Arial', 'DejaVu Sans', sans-serif; text-anchor: middle" x="113.814138" y="298.14275" transform="rotate(-0 113.814138 298.14275)">500</text>
     </g>
    </g>
    <g id="xtick_3">
     <g id="line2d_3">
      <g>
       <use xlink:href="#m807a694c8c" x="188.963277" y="285.064" style="stroke: #000000; stroke-width: 0.8"/>
      </g>
     </g>
     <g id="text_3">
      <text style="font: 8px 'Arial', 'DejaVu Sans', sans-serif; text-anchor: middle" x="188.963277" y="298.14275" transform="rotate(-0 188.963277 298.14275)">1000</text>
     </g>
    </g>
    <g id="xtick_4">
     <g id="line2d_4">
      <g>
       <use xlink:href="#m807a694c8c" x="264.112415" y="285.064" style="stroke: #000000; stroke-width: 0.8"/>
      </g>
     </g>
     <g id="text_4">
      <text style="font: 8px 'Arial', 'DejaVu Sans', sans-serif; text-anchor: middle" x="264.112415" y="298.14275" transform="rotate(-0 264.112415 298.14275)">1500</text>
     </g>
    </g>
    <g id="xtick_5">
     <g id="line2d_5">
      <g>
       <use xlink:href="#m807a694c8c" x="339.261553" y="285.064" style="stroke: #000000; stroke-width: 0.8"/>
      </g>
     </g>
     <g id="text_5">
      <text style="font: 8px 'Arial', 'DejaVu Sans', sans-serif; text-anchor: middle" x="339.261553" y="298.14275" transform="rotate(-0 339.261553 298.14275)">2000</text>
     </g>
    </g>
    <g id="xtick_6">
     <g id="line2d_6">
      <g>
       <use xlink:href="#m807a694c8c" x="414.410691" y="285.064" style="stroke: #000000; stroke-width: 0.8"/>
      </g>
     </g>
     <g id="text_6">
      <text style="font: 8px 'Arial', 'DejaVu Sans', sans-serif; text-anchor: middle" x="414.410691" y="298.14275" transform="rotate(-0 414.410691 298.14275)">2500</text>
     </g>
    </g>
    <g id="xtick_7">
     <g id="line2d_7">
      <g>
       <use xlink:href="#m807a694c8c" x="489.55983" y="285.064" style="stroke: #000000; stroke-width: 0.8"/>
      </g>
     </g>
     <g id="text_7">
      <text style="font: 8px 'Arial', 'DejaVu Sans', sans-serif; text-anchor: middle" x="489.55983" y="298.14275" transform="rotate(-0 489.55983 298.14275)">3000</text>
     </g>
    </g>
    <g id="text_8">
     <!-- Raman shift (cm$^{-1}$) -->
     <g transform="translate(234.855 310.46275)">
      <text>
       <tspan style="font: 8px 'DejaVu Sans'" x="0 5.558594 10.460938 18.253906 23.15625 28.226562 30.769531 34.9375 40.007812 42.230469 45.046875 48.183594 50.726562 53.847656 58.246094 74.589453" y="-0.8578125000000005">Raman shift (cm)</tspan>
       <tspan style="font: 5.6px 'DejaVu Sans'" x="66.115625 70.807812" y="-3.9203125000000005">−1</tspan>
      </text>
     </g>
    </g>
   </g>
   <g id="matplotlib.axis_2">
    <g id="ytick_1">
     <g id="line2d_8">
      <path d="M 38.665 264.254802 
L 508.805 264.254802 
" clip-path="url(#p14311ed635)" style="fill: none; stroke: #b0b0b0; stroke-opacity: 0.18; stroke-width: 0.6; stroke-linecap: square"/>
     </g>
     <g id="line2d_9">
      <defs>
       <path id="m6a8ed03243" d="M 0 0 
L -3.5 0 
" style="stroke: #000000; stroke-width: 0.8"/>
      </defs>
      <g>
       <use xlink:href="#m6a8ed03243" x="38.665" y="264.254802" style="stroke: #000000; stroke-width: 0.8"/>
      </g>
     </g>
     <g id="text_9">
      <text style="font: 8px 'Arial', 'DejaVu Sans', sans-serif; text-anchor: end" x="31.665" y="267.294177" transform="rotate(-0 31.665 267.294177)">0.0</text>
     </g>
    </g>
    <g id="ytick_2">
     <g id="line2d_10">
      <path d="M 38.665 215.291982 
L 508.805 215.291982 
" clip-path="url(#p14311ed635)" style="fill: none; stroke: #b0b0b0; stroke-opacity: 0.18; stroke-width: 0.6; stroke-linecap: square"/>
     </g>
     <g id="line2d_11">
      <g>
       <use xlink:href="#m6a8ed03243" x="38.665" y="215.291982" style="stroke: #000000; stroke-width: 0.8"/>
      </g>
     </g>
     <g id="text_10">
      <text style="font: 8px 'Arial', 'DejaVu Sans', sans-serif; text-anchor: end" x="31.665" y="218.331357" transform="rotate(-0 31.665 218.331357)">0.2</text>
     </g>
    </g>
    <g id="ytick_3">
     <g id="line2d_12">
      <path d="M 38.665 166.329163 
L 508.805 166.329163 
" clip-path="url(#p14311ed635)" style="fill: none; stroke: #b0b0b0; stroke-opacity: 0.18; stroke-width: 0.6; stroke-linecap: square"/>
     </g>
     <g id="line2d_13">
      <g>
       <use xlink:href="#m6a8ed03243" x="38.665" y="166.329163" style="stroke: #000000; stroke-width: 0.8"/>
      </g>
     </g>
     <g id="text_11">
      <text style="font: 8px 'Arial', 'DejaVu Sans', sans-serif; text-anchor: end" x="31.665" y="169.368538" transform="rotate(-0 31.665 169.368538)">0.4</text>
     </g>
    </g>
    <g id="ytick_4">
     <g id="line2d_14">
      <path d="M 38.665 117.366344 
L 508.805 117.366344 
" clip-path="url(#p14311ed635)" style="fill: none; stroke: #b0b0b0; stroke-opacity: 0.18; stroke-width: 0.6; stroke-linecap: square"/>
     </g>
     <g id="line2d_15">
      <g>
       <use xlink:href="#m6a8ed03243" x="38.665" y="117.366344" style="stroke: #000000; stroke-width: 0.8"/>
      </g>
     </g>
     <g id="text_12">
      <text style="font: 8px 'Arial', 'DejaVu Sans', sans-serif; text-anchor: end" x="31.665" y="120.405719" transform="rotate(-0 31.665 120.405719)">0.6</text>
     </g>
    </g>
    <g id="ytick_5">
     <g id="line2d_16">
      <path d="M 38.665 68.403524 
L 508.805 68.403524 
" clip-path="url(#p14311ed635)" style="fill: none; stroke: #b0b0b0; stroke-opacity: 0.18; stroke-width: 0.6; stroke-linecap: square"/>
     </g>
     <g id="line2d_17">
      <g>
       <use xlink:href="#m6a8ed03243" x="38.665" y="68.403524" style="stroke: #000000; stroke-width: 0.8"/>
      </g>
     </g>
     <g id="text_13">
      <text style="font: 8px 'Arial', 'DejaVu Sans', sans-serif; text-anchor: end" x="31.665" y="71.442899" transform="rotate(-0 31.665 71.442899)">0.8</text>
     </g>
    </g>
    <g id="ytick_6">
     <g id="line2d_18">
      <path d="M 38.665 19.440705 
L 508.805 19.440705 
" clip-path="url(#p14311ed635)" style="fill: none; stroke: #b0b0b0; stroke-opacity: 0.18; stroke-width: 0.6; stroke-linecap: square"/>
     </g>
     <g id="line2d_19">
      <g>
       <use xlink:href="#m6a8ed03243" x="38.665" y="19.440705" style="stroke: #000000; stroke-width: 0.8"/>
      </g>
     </g>
     <g id="text_14">
      <text style="font: 8px 'Arial', 'DejaVu Sans', sans-serif; text-anchor: end" x="31.665" y="22.48008" transform="rotate(-0 31.665 22.48008)">1.0</text>
     </g>
    </g>
    <g id="text_15">
     <text style="font: 8px 'Arial', 'DejaVu Sans', sans-serif; text-anchor: middle" x="13.27875" y="146.132" transform="rotate(-90 13.27875 146.132)">Normalized Raman intensity</text>
    </g>
   </g>
   <g id="line2d_20">
    <path d="M 38.665 264.253691 
L 252.81377 264.143071 
L 258.45545 263.940731 
L 260.57108 263.686804 
L 261.9815 263.296372 
L 262.68671 262.930511 
L 263.39192 262.309521 
L 263.86206 261.620947 
L 264.3322 260.500799 
L 264.80234 258.515453 
L 265.27248 254.570922 
L 265.50755 251.049555 
L 265.74262 245.560831 
L 266.21276 224.158493 
L 266.44783 210.559466 
L 266.6829 207.484976 
L 267.62318 249.251635 
L 268.09332 256.124509 
L 268.56346 259.268072 
L 269.0336 260.912883 
L 269.50374 261.868451 
L 270.20895 262.688099 
L 270.91416 263.149516 
L 271.85444 263.504652 
L 273.26486 263.785452 
L 275.61556 263.996104 
L 280.31696 264.140934 
L 292.30553 264.21961 
L 349.19247 264.244514 
L 454.7389 264.131421 
L 466.96254 263.931309 
L 471.89901 263.662383 
L 474.71985 263.311153 
L 476.60041 262.857083 
L 477.77576 262.375463 
L 478.71604 261.777945 
L 479.42125 261.114799 
L 480.12646 260.137696 
L 480.5966 259.204257 
L 481.06674 257.909227 
L 481.53688 256.040418 
L 482.00702 253.206856 
L 482.47716 248.628067 
L 482.9473 240.581578 
L 483.41744 224.768665 
L 483.65251 210.773232 
L 483.88758 189.064804 
L 484.12265 154.790702 
L 484.82786 19.440705 
L 485.06293 59.668177 
L 485.53307 166.396844 
L 486.00321 215.435838 
L 486.47335 236.172246 
L 486.94349 246.228087 
L 487.41363 251.738212 
L 487.88377 255.048207 
L 488.35391 257.177932 
L 489.05912 259.172944 
L 489.76433 260.381601 
L 490.46954 261.157832 
L 491.40982 261.806811 
L 492.3501 262.190834 
L 493.52545 262.437011 
L 494.93587 262.479141 
L 496.11122 262.30014 
L 497.0515 261.958854 
L 497.75671 261.516855 
L 498.46192 260.805875 
L 498.93206 260.086481 
L 499.4022 259.043618 
L 499.87234 257.468657 
L 500.34248 254.954886 
L 500.81262 250.631663 
L 501.28276 242.40481 
L 501.51783 235.323298 
L 501.7529 224.541868 
L 501.98797 207.620656 
L 502.45811 143.885584 
L 502.69318 110.843233 
L 502.92825 114.196147 
L 503.63346 210.734745 
L 504.1036 236.658447 
L 504.57374 247.925908 
L 505.04388 253.559263 
L 505.51402 256.723356 
L 505.98416 258.663155 
L 506.68937 260.410196 
L 507.39458 261.439854 
L 508.09979 262.097186 
L 508.805 262.542643 
L 508.805 262.542643 
" clip-path="url(#p14311ed635)" style="fill: none; stroke: #2f6b9a; stroke-width: 1.7; stroke-linecap: square"/>
   </g>
   <g id="LineCollection_1">
    <path d="M 232.238291 282.615859 
L 232.238291 282.615853 
" clip-path="url(#p14311ed635)" style="fill: none; stroke: #b2472f; stroke-width: 0.9"/>
    <path d="M 232.238291 282.615859 
L 232.238291 282.615853 
" clip-path="url(#p14311ed635)" style="fill: none; stroke: #b2472f; stroke-width: 0.9"/>
    <path d="M 232.238291 282.615859 
L 232.238291 282.615853 
" clip-path="url(#p14311ed635)" style="fill: none; stroke: #b2472f; stroke-width: 0.9"/>
    <path d="M 266.610033 282.615859 
L 266.610033 280.895826 
" clip-path="url(#p14311ed635)" style="fill: none; stroke: #b2472f; stroke-width: 0.9"/>
    <path d="M 266.610033 282.615859 
L 266.610033 280.888549 
" clip-path="url(#p14311ed635)" style="fill: none; stroke: #b2472f; stroke-width: 0.9"/>
    <path d="M 484.793588 282.615859 
L 484.793588 267.927013 
" clip-path="url(#p14311ed635)" style="fill: none; stroke: #b2472f; stroke-width: 0.9"/>
    <path d="M 502.793069 282.615859 
L 502.793069 279.476398 
" clip-path="url(#p14311ed635)" style="fill: none; stroke: #b2472f; stroke-width: 0.9"/>
    <path d="M 502.793069 282.615859 
L 502.793069 279.476399 
" clip-path="url(#p14311ed635)" style="fill: none; stroke: #b2472f; stroke-width: 0.9"/>
    <path d="M 502.793069 282.615859 
L 502.793069 279.476848 
" clip-path="url(#p14311ed635)" style="fill: none; stroke: #b2472f; stroke-width: 0.9"/>
   </g>
   <g id="patch_3">
    <path d="M 38.665 285.064 
L 38.665 7.2 
" style="fill: none; stroke: #000000; stroke-width: 0.8; stroke-linejoin: miter; stroke-linecap: square"/>
   </g>
   <g id="patch_4">
    <path d="M 38.665 285.064 
L 508.805 285.064 
" style="fill: none; stroke: #000000; stroke-width: 0.8; stroke-linejoin: miter; stroke-linecap: square"/>
   </g>
  </g>
 </g>
 <defs>
  <clipPath id="p14311ed635">
   <rect x="38.665" y="7.2" width="470.14" height="277.864"/>
  </clipPath>
 </defs>
</svg>
